<?xml version="1.0" encoding="utf-8"?>
<!-- Generator: Adobe Illustrator 16.0.0, SVG Export Plug-In . SVG Version: 6.00 Build 0)  -->
<!DOCTYPE svg PUBLIC "-//W3C//DTD SVG 1.1//EN" "http://www.w3.org/Graphics/SVG/1.1/DTD/svg11.dtd">
<svg version="1.1" id="Layer_1" xmlns="http://www.w3.org/2000/svg" xmlns:xlink="http://www.w3.org/1999/xlink" x="0px" y="0px"
	 width="228px" height="82px" viewBox="1270.5 -32.833 228 82" enable-background="new 1270.5 -32.833 228 82" xml:space="preserve"
	>
<g>
	<path fill="#FFFFFF" d="M1279.001,36.817h10.501V9.253c0-1.351,0.039-2.764,0.113-4.238l-6.189,5.138
		c-0.4,0.325-0.8,0.562-1.199,0.711c-0.399,0.125-0.789,0.188-1.163,0.188c-0.65,0-1.238-0.137-1.764-0.411
		c-0.499-0.301-0.874-0.613-1.124-0.938l-3.676-4.877l17.027-14.288h9.601v46.28h9.001v8.401h-31.128V36.817z M1351.239-4.625
		c0,0.8-0.123,1.526-0.374,2.176c-0.25,0.65-0.648,1.225-1.2,1.725c-0.525,0.475-1.226,0.85-2.101,1.125
		c-0.875,0.25-1.925,0.375-3.15,0.375h-13.052l-1.537,9.038c1.024-0.176,2.013-0.301,2.962-0.375
		c0.95-0.099,1.876-0.149,2.776-0.149c2.876,0,5.412,0.437,7.613,1.313c2.199,0.874,4.051,2.075,5.55,3.6
		c1.501,1.5,2.627,3.275,3.377,5.325c0.773,2.026,1.162,4.201,1.162,6.526c0,2.927-0.526,5.602-1.577,8.025
		c-1.021,2.401-2.462,4.477-4.312,6.227c-1.85,1.751-4.062,3.113-6.638,4.088c-2.551,0.95-5.352,1.425-8.401,1.425
		c-1.775,0-3.476-0.187-5.102-0.562c-1.599-0.376-3.112-0.875-4.537-1.5c-1.401-0.649-2.7-1.388-3.9-2.213
		c-1.2-0.85-2.288-1.75-3.264-2.7l3.602-4.801c0.374-0.499,0.812-0.875,1.312-1.124c0.499-0.275,1.038-0.412,1.612-0.412
		c0.75,0,1.451,0.212,2.101,0.636c0.675,0.401,1.4,0.852,2.175,1.352c0.801,0.475,1.725,0.913,2.775,1.312
		c1.049,0.399,2.351,0.6,3.9,0.6s2.876-0.251,3.976-0.75c1.1-0.524,1.988-1.225,2.663-2.101c0.699-0.9,1.201-1.937,1.5-3.112
		c0.325-1.2,0.487-2.476,0.487-3.826c0-2.65-0.75-4.662-2.251-6.038c-1.5-1.4-3.625-2.1-6.375-2.1c-2.45,0-4.851,0.462-7.201,1.388
		l-7.201-1.95l4.65-27.341h27.979V-4.625z M1383.876,10.603c1.976,0,3.924,0.325,5.851,0.975c1.923,0.65,3.648,1.65,5.175,3
		c1.524,1.35,2.75,3.063,3.676,5.138c0.948,2.05,1.425,4.477,1.425,7.275c0,2.551-0.477,4.976-1.425,7.276
		c-0.95,2.276-2.301,4.276-4.052,6.001c-1.724,1.7-3.812,3.05-6.264,4.05c-2.45,1.001-5.162,1.5-8.138,1.5
		c-3.05,0-5.788-0.475-8.212-1.425c-2.427-0.975-4.488-2.326-6.188-4.051c-1.677-1.725-2.966-3.787-3.865-6.188
		c-0.875-2.401-1.312-5.039-1.312-7.913c0-2.725,0.525-5.438,1.575-8.139c1.049-2.7,2.6-5.45,4.65-8.251l12.302-16.615
		c0.55-0.75,1.375-1.375,2.475-1.875c1.1-0.524,2.351-0.787,3.752-0.787h10.35l-16.202,19.352c-0.249,0.275-0.499,0.563-0.748,0.863
		c-0.227,0.274-0.451,0.55-0.675,0.826c0.873-0.325,1.786-0.575,2.736-0.751C1381.736,10.689,1382.774,10.603,1383.876,10.603z
		 M1371.724,27.816c0,1.352,0.162,2.563,0.485,3.638c0.326,1.075,0.827,2.001,1.502,2.775c0.676,0.775,1.524,1.376,2.552,1.801
		c1.024,0.4,2.236,0.602,3.638,0.602c1.2,0,2.312-0.227,3.338-0.678c1.05-0.449,1.949-1.062,2.699-1.837
		c0.75-0.8,1.339-1.725,1.764-2.775c0.45-1.074,0.675-2.238,0.675-3.487c0-1.401-0.213-2.65-0.638-3.75
		c-0.4-1.101-0.977-2.026-1.725-2.776c-0.752-0.75-1.664-1.325-2.737-1.724c-1.052-0.401-2.227-0.601-3.526-0.601
		c-1.176,0-2.25,0.213-3.224,0.638c-0.977,0.4-1.828,0.987-2.554,1.763c-0.7,0.775-1.249,1.7-1.648,2.775
		C1371.922,25.255,1371.724,26.467,1371.724,27.816z"/>
	<path fill="#26E5DD" d="M1462.169,10.992c-1.728,0-2.98-1.207-2.98-2.871v-4.12h-0.797c-3.343,0-6.062-2.86-6.062-6.377v-16.385
		c0-3.517,2.719-6.376,6.062-6.376h29.752c3.341,0,6.062,2.86,6.062,6.376v16.385c0,3.517-2.721,6.377-6.062,6.377h-16.47
		l-7.057,6.025C1463.971,10.641,1463.082,10.992,1462.169,10.992z M1458.392-21.932c-1.573,0-2.854,1.421-2.854,3.171v16.385
		c0,1.749,1.281,3.17,2.854,3.17h4.004v6.917c0.006-0.004,0.008-0.007,0.012-0.009l0.088-0.083l7.997-6.825h17.651
		c1.575,0,2.854-1.422,2.854-3.17v-16.385c0-1.75-1.279-3.171-2.854-3.171H1458.392z"/>
	<path fill="#FFDF57" d="M1452.848,0.192h-20.974l-7.997,6.826l-0.09,0.082c-0.002,0.002-0.006,0.005-0.009,0.008V0.192h-4.005
		c-1.574,0-2.854-1.422-2.854-3.169v-22.132c0-1.747,1.279-3.168,2.854-3.168h39.328c1.564,0,2.838,1.407,2.852,3.141h3.21
		c-0.015-3.502-2.729-6.349-6.062-6.349h-39.328c-3.342,0-6.062,2.861-6.062,6.376v22.132c0,3.515,2.72,6.376,6.062,6.376h0.799
		v4.119c0,1.665,1.249,2.872,2.978,2.872c0.916,0,1.803-0.351,2.448-0.966l7.059-6.024h22.78
		C1454.509,2.746,1453.441,1.605,1452.848,0.192z"/>
	<path fill="#26E5DD" d="M1481.91-15.806c-0.782-0.784-2.052-0.784-2.833,0l-7.64,7.634l-3.978-3.977
		c-0.783-0.783-2.053-0.783-2.833,0c-0.786,0.783-0.786,2.052,0,2.834l5.392,5.396c0.395,0.391,0.905,0.587,1.42,0.587
		c0.511,0,1.024-0.196,1.418-0.587l9.054-9.054C1482.692-13.755,1482.692-15.024,1481.91-15.806z"/>
	<g>
		<path fill="#FFDF57" d="M1439.133-8.195c-1.491,0-2.704,1.213-2.704,2.704s1.213,2.703,2.704,2.703
			c1.49,0,2.702-1.212,2.702-2.703S1440.623-8.195,1439.133-8.195z"/>
		<path fill="#FFDF57" d="M1440.029-16.42l0.056,0.102c-0.047,0.025-0.072,0.039-0.097,0.055c-1.43,0.799-3.192,1.784-3.192,4.174
			c0,0.614,0.185,1.092,0.548,1.421c0.392,0.356,0.994,0.537,1.789,0.537c0.37,0,0.676-0.083,0.934-0.255
			c0.204-0.137,0.377-0.334,0.529-0.604c0.106-0.188,0.193-0.383,0.274-0.564l0.026-0.061l0.05-0.117
			c0.126-0.278,0.231-0.479,0.373-0.625c0.105-0.102,0.254-0.199,0.487-0.323c0.173-0.091,0.371-0.183,0.594-0.286
			c0.042-0.02,0.088-0.042,0.135-0.061c0.554-0.261,1.155-0.555,1.744-0.969c1.538-1.082,2.286-2.544,2.286-4.467
			c0-1.625-0.792-3.177-2.229-4.37c-1.359-1.123-3.107-1.767-4.794-1.767c-1.569,0-2.893,0.31-4.047,0.947
			c-1.07,0.591-2.008,1.477-2.865,2.709c-0.144,0.206-0.314,0.604-0.319,1.047c-0.007,0.37,0.106,0.901,0.685,1.342
			c0.361,0.27,0.907,0.453,1.424,0.474l0.107,0.003c0.312,0,0.889-0.066,1.24-0.506c0.442-0.559,0.93-1.129,1.491-1.508
			c0.566-0.374,1.188-0.547,1.963-0.547c0.659,0,1.383,0.214,1.936,0.574c0.637,0.413,0.986,0.967,0.986,1.561
			c0,0.459-0.182,0.843-0.57,1.209c-0.351,0.327-0.858,0.622-1.485,0.974L1440.029-16.42L1440.029-16.42z"/>
	</g>
	<g>
		<path fill="#FFFFFF" d="M1413.629,19.061h5.093c0.525,0,0.965,0.12,1.318,0.358c0.352,0.24,0.582,0.556,0.69,0.951l3.585,13.628
			c0.12,0.442,0.239,0.915,0.359,1.416c0.119,0.502,0.209,1.028,0.27,1.578c0.119-0.562,0.25-1.091,0.395-1.587
			c0.144-0.495,0.28-0.965,0.411-1.407l4.232-13.628c0.108-0.334,0.339-0.637,0.69-0.906c0.354-0.269,0.779-0.403,1.283-0.403h1.791
			c0.527,0,0.96,0.116,1.302,0.35c0.341,0.233,0.576,0.553,0.707,0.959l4.197,13.628c0.131,0.418,0.27,0.863,0.411,1.335
			c0.145,0.473,0.27,0.978,0.378,1.516c0.096-0.525,0.192-1.028,0.296-1.506c0.101-0.478,0.205-0.927,0.314-1.345l3.585-13.628
			c0.096-0.347,0.323-0.652,0.683-0.915c0.357-0.263,0.787-0.395,1.29-0.395h4.77l-8.068,26.127h-5.487l-4.913-16.192
			c-0.084-0.252-0.171-0.526-0.26-0.825c-0.09-0.299-0.178-0.616-0.261-0.951c-0.084,0.335-0.17,0.652-0.26,0.951
			s-0.178,0.573-0.26,0.825l-4.986,16.192h-5.485L1413.629,19.061z"/>
		<path fill="#FFFFFF" d="M1470.831,19.061v4.662h-10.722v6.098h8.212v4.482h-8.212v6.222h10.722v4.663h-16.819V19.061H1470.831z"/>
		<path fill="#FFFFFF" d="M1474.272,45.188V19.061h9.611c1.806,0,3.343,0.167,4.608,0.502c1.269,0.335,2.303,0.807,3.104,1.417
			c0.8,0.609,1.384,1.351,1.748,2.223c0.365,0.873,0.547,1.847,0.547,2.923c0,0.585-0.085,1.15-0.251,1.694
			c-0.168,0.545-0.43,1.055-0.789,1.533s-0.819,0.911-1.381,1.3c-0.562,0.389-1.237,0.727-2.027,1.014
			c1.723,0.418,2.996,1.097,3.821,2.034c0.825,0.939,1.236,2.144,1.236,3.614c0,1.111-0.215,2.146-0.646,3.102
			c-0.43,0.957-1.061,1.791-1.891,2.501c-0.832,0.712-1.857,1.268-3.076,1.669c-1.22,0.4-2.611,0.601-4.179,0.601H1474.272z
			 M1480.334,30.053h3.155c0.67,0,1.274-0.048,1.812-0.144c0.537-0.096,0.995-0.263,1.371-0.502s0.664-0.567,0.86-0.986
			c0.198-0.418,0.298-0.944,0.298-1.577c0-0.622-0.079-1.14-0.234-1.552s-0.395-0.745-0.718-0.995
			c-0.322-0.251-0.731-0.43-1.228-0.539c-0.497-0.107-1.084-0.161-1.768-0.161h-3.55V30.053z M1480.334,34.105v6.509h4.269
			c0.801,0,1.455-0.101,1.964-0.305c0.507-0.203,0.905-0.466,1.191-0.788c0.288-0.324,0.484-0.688,0.593-1.095
			c0.106-0.406,0.161-0.819,0.161-1.237c0-0.478-0.063-0.909-0.189-1.291c-0.125-0.383-0.34-0.705-0.646-0.968
			c-0.305-0.263-0.708-0.467-1.21-0.61c-0.503-0.144-1.135-0.215-1.899-0.215H1480.334z"/>
	</g>
</g>
</svg>
